<?xml version="1.0" standalone="no"?>
<!DOCTYPE svg PUBLIC "-//W3C//DTD SVG 20010904//EN"
 "http://www.w3.org/TR/2001/REC-SVG-20010904/DTD/svg10.dtd">
<svg version="1.0" xmlns="http://www.w3.org/2000/svg"
 width="712.000000pt" height="656.000000pt" viewBox="0 0 712.000000 656.000000"
 preserveAspectRatio="xMidYMid meet">

<g transform="translate(0.000000,656.000000) scale(0.100000,-0.100000)"
fill="#000000" stroke="none">
<path d="M3575 6199 c-593 -40 -1167 -268 -1635 -650 -139 -113 -351 -323
-444 -439 -338 -423 -556 -929 -643 -1490 -25 -165 -25 -634 0 -805 38 -251
112 -517 202 -727 32 -77 50 -105 74 -120 17 -11 31 -18 31 -15 0 3 -18 45
-41 94 -269 580 -337 1209 -198 1838 119 536 391 1031 783 1420 148 146 248
228 431 350 388 259 812 414 1275 466 161 18 483 16 630 -5 328 -45 584 -122
869 -261 283 -139 498 -292 722 -515 234 -234 395 -458 540 -751 436 -881 385
-1929 -134 -2786 -425 -700 -1141 -1183 -1975 -1330 -148 -26 -173 -28 -452
-27 -276 0 -305 2 -445 27 -389 70 -735 204 -1040 404 -247 162 -396 296 -593
534 -211 254 -225 268 -319 317 -107 55 -212 82 -322 82 -190 0 -322 -74 -395
-220 -95 -190 -61 -409 84 -543 79 -74 149 -101 246 -95 123 8 218 78 246 181
11 41 10 57 -4 112 -10 36 -25 76 -34 90 l-16 25 -45 -41 c-62 -57 -135 -89
-205 -89 -72 0 -98 10 -152 60 -126 116 -89 314 75 405 50 28 62 30 149 29
112 0 183 -25 306 -105 135 -89 224 -184 358 -389 190 -288 297 -404 490 -532
186 -123 337 -175 531 -185 108 -5 134 -10 265 -54 157 -51 413 -109 580 -131
149 -19 532 -16 685 6 479 67 863 212 1262 477 672 445 1148 1195 1283 2019
87 530 21 1099 -185 1595 -351 846 -1071 1471 -1956 1695 -294 75 -579 100
-884 79z"/>
<path d="M1736 2435 c-22 -7 -55 -30 -75 -49 l-35 -35 -11 32 c-10 32 -47 49
-66 30 -4 -4 -1 -51 7 -103 7 -52 14 -165 14 -251 0 -147 1 -157 20 -162 43
-11 49 8 52 183 3 160 4 167 33 223 45 91 114 136 130 86 4 -11 5 -44 3 -72
-3 -50 -2 -52 24 -55 23 -3 28 2 38 35 17 56 10 103 -20 124 -36 26 -70 30
-114 14z"/>
<path d="M2690 2433 c-28 -20 -23 -63 9 -80 31 -15 58 -2 67 32 11 45 -37 75
-76 48z"/>
<path d="M3926 2358 c-3 -46 -7 -165 -10 -266 l-4 -183 24 -11 c18 -9 28 -8
36 0 6 6 14 66 19 134 8 129 19 178 50 240 21 41 76 108 89 108 20 0 30 -74
30 -211 l0 -149 34 0 33 0 11 93 c13 109 33 181 65 228 62 92 82 15 74 -272
l-6 -197 24 -4 c48 -10 49 -5 50 252 l0 242 -33 29 c-18 16 -44 29 -58 29 -37
0 -90 -28 -109 -57 l-17 -25 -19 31 c-39 64 -107 63 -170 0 -21 -21 -42 -39
-45 -39 -3 0 -4 24 -2 53 3 52 3 52 -29 55 l-31 3 -6 -83z"/>
<path d="M5017 2434 c-4 -4 -7 -35 -7 -68 0 -89 -6 -104 -44 -108 -23 -2 -32
-8 -34 -25 -3 -20 1 -23 32 -23 l36 0 1 -87 c0 -125 11 -180 41 -210 33 -33
90 -36 120 -5 20 19 20 22 4 28 -9 4 -28 2 -40 -4 -21 -9 -25 -7 -36 16 -7 15
-15 80 -18 144 l-5 117 44 3 c32 2 45 8 47 20 3 14 -6 19 -37 24 l-40 6 -3 87
c-3 84 -4 86 -28 89 -14 2 -29 0 -33 -4z"/>
<path d="M2074 2420 c-76 -30 -154 -207 -154 -346 0 -69 27 -137 61 -155 40
-21 92 -29 130 -19 39 11 135 103 124 120 -14 23 -50 7 -94 -40 -51 -54 -86
-64 -113 -32 -22 25 -38 79 -38 128 0 38 3 44 21 44 71 0 155 54 189 121 22
41 26 109 10 140 -21 39 -88 59 -136 39z m72 -55 c17 -42 8 -88 -28 -141 -22
-33 -98 -79 -117 -72 -14 4 34 143 67 195 15 23 34 44 42 47 8 2 16 4 18 5 2
0 10 -15 18 -34z"/>
<path d="M3404 2421 c-75 -33 -154 -209 -154 -347 0 -66 29 -137 63 -156 38
-20 91 -27 128 -18 39 11 135 103 124 120 -14 23 -50 7 -94 -40 -51 -54 -86
-64 -113 -32 -22 25 -38 79 -38 128 0 42 1 44 29 44 38 0 91 23 130 56 69 58
93 167 48 219 -24 29 -86 42 -123 26z m76 -61 c15 -37 2 -95 -33 -142 -20 -26
-90 -68 -115 -68 -29 0 73 235 106 243 23 5 28 2 42 -33z"/>
<path d="M4635 2416 c-73 -32 -146 -127 -113 -147 26 -17 48 -9 61 24 18 40
60 83 95 95 58 20 90 -16 117 -129 16 -71 13 -84 -17 -68 -30 16 -111 6 -146
-19 -17 -12 -42 -45 -56 -74 -46 -92 -29 -168 43 -198 31 -12 122 -10 154 4
13 6 17 4 17 -12 0 -24 39 -37 56 -19 29 30 42 250 23 367 -24 152 -122 225
-234 176z m120 -252 c38 -15 57 -101 34 -161 -31 -82 -128 -111 -157 -47 -26
56 0 150 53 192 29 23 43 26 70 16z"/>
<path d="M5349 2408 c-44 -30 -104 -148 -125 -247 -30 -148 11 -245 115 -265
56 -10 105 9 150 61 48 54 52 73 14 73 -21 0 -35 -11 -57 -41 -73 -104 -156
-64 -156 76 l0 52 40 6 c90 12 172 92 187 181 16 99 -83 160 -168 104z m89
-33 c28 -60 6 -134 -53 -183 -35 -28 -82 -48 -91 -39 -16 15 73 219 103 236
26 15 28 14 41 -14z"/>
<path d="M2445 2408 c-59 -33 -98 -95 -130 -208 -27 -98 -25 -179 7 -228 51
-76 170 -100 246 -49 37 24 76 83 66 99 -13 20 -54 7 -69 -21 -43 -83 -142
-96 -179 -23 -35 70 -24 193 30 312 28 63 46 84 82 95 18 5 25 1 40 -24 12
-22 24 -31 44 -31 32 0 38 8 27 37 -16 44 -114 69 -164 41z"/>
<path d="M2834 2405 c-4 -8 -1 -110 6 -226 7 -116 9 -233 6 -259 -6 -43 -4
-48 15 -53 51 -13 63 18 57 156 -2 48 -2 87 -2 87 1 0 21 -9 45 -20 95 -43
186 -14 228 73 25 51 27 94 6 144 -20 48 -41 71 -87 94 -62 32 -134 21 -190
-29 -17 -14 -18 -13 -18 10 0 18 -7 27 -22 32 -33 8 -38 8 -44 -9z m254 -46
c63 -65 66 -167 6 -227 -29 -29 -39 -33 -66 -28 -65 13 -105 80 -95 163 6 59
62 120 113 122 7 1 25 -13 42 -30z"/>
<path d="M2690 2091 l0 -191 26 -6 c14 -4 30 -2 35 3 5 5 8 87 7 194 l-3 184
-32 3 -33 3 0 -190z"/>
</g>
</svg>
